<?xml version="1.0" standalone="no"?>
<!DOCTYPE svg PUBLIC "-//W3C//DTD SVG 20010904//EN"
 "http://www.w3.org/TR/2001/REC-SVG-20010904/DTD/svg10.dtd">
<svg version="1.0" xmlns="http://www.w3.org/2000/svg"
 width="190.000000pt" height="190.000000pt" viewBox="0 0 190.000000 190.000000"
 preserveAspectRatio="xMidYMid meet">
<metadata>
Created by potrace 1.14, written by Peter Selinger 2001-2017
</metadata>
<g transform="translate(0.000000,190.000000) scale(0.100000,-0.100000)"
fill="#000000" stroke="none">
<path d="M300 1776 c-78 -22 -145 -66 -190 -125 -39 -53 -79 -158 -80 -213 0
-50 33 -149 70 -208 27 -43 90 -151 90 -154 0 -2 40 -71 88 -153 48 -81 91
-155 95 -163 4 -8 17 -32 30 -52 12 -21 51 -88 87 -150 36 -62 77 -133 92
-158 15 -25 37 -65 49 -89 27 -56 123 -154 175 -177 29 -13 66 -18 149 -18 96
-1 115 2 154 23 75 40 131 107 226 274 50 87 100 175 112 195 12 20 42 71 65
112 23 41 47 83 53 92 5 9 39 68 75 130 35 62 70 122 77 133 7 11 15 27 20 35
4 8 26 47 49 85 64 106 84 165 84 246 0 88 -37 176 -103 242 -50 51 -90 74
-162 93 -70 19 -1238 18 -1305 0z m601 -128 c105 -56 217 -182 254 -289 22
-63 19 -71 -17 -39 -48 44 -96 63 -166 68 -124 9 -256 -38 -342 -120 -67 -64
-88 -95 -150 -219 -8 -16 -29 -87 -36 -123 -5 -29 -11 -29 -26 1 -27 53 -100
182 -135 238 -47 75 -107 192 -114 223 -25 104 30 211 131 259 37 17 569 18
601 1z m714 -9 c92 -43 147 -155 123 -250 -7 -24 -38 -89 -70 -144 -32 -55
-88 -155 -125 -222 -67 -121 -69 -122 -126 -148 -124 -57 -276 -78 -362 -51
l-40 12 30 8 c112 29 211 184 222 347 10 158 -43 293 -166 417 l-51 52 260 0
c245 0 263 -1 305 -21z m-615 -351 c185 -43 186 -309 2 -357 -123 -31 -232 53
-232 179 0 102 65 173 172 189 3 1 30 -4 58 -11z m-328 -153 c-19 -172 172
-375 384 -406 80 -12 209 -5 277 16 26 8 47 10 47 5 0 -5 -17 -38 -38 -72 -21
-35 -41 -70 -45 -78 -4 -8 -16 -28 -26 -45 -35 -58 -118 -203 -124 -217 -8
-23 -88 -84 -126 -97 -54 -18 -108 -13 -167 15 -62 29 -75 46 -190 249 -43 77
-84 149 -91 160 -7 11 -17 30 -22 42 -5 11 -15 24 -20 28 -14 8 -14 87 0 145
6 25 13 54 15 65 14 71 103 232 130 235 1 0 -1 -20 -4 -45z"/>
</g>
</svg>
